<svg width="16" height="16" viewBox="0 0 16 16" fill="none" xmlns="http://www.w3.org/2000/svg">
<path d="M1.8356 5.68027C1.46611 5.74185 1.16202 6.00477 1.0477 6.36149C0.933389 6.71821 1.02802 7.1089 1.29289 7.37377L3.60601 9.68689L3.01005 13.8586C2.95745 14.2268 3.11355 14.5938 3.41529 14.8112C3.71703 15.0287 4.11454 15.0608 4.44721 14.8944L8 13.118L11.5528 14.8944C11.8855 15.0608 12.283 15.0287 12.5847 14.8112C12.8864 14.5938 13.0426 14.2268 12.9899 13.8586L12.394 9.68689L14.7071 7.37377C14.972 7.1089 15.0666 6.71821 14.9523 6.36149C14.838 6.00477 14.5339 5.74185 14.1644 5.68027L10.6667 5.09732L8.89443 1.55279C8.72504 1.214 8.37877 1 8 1C7.62123 1 7.27496 1.214 7.10557 1.55279L5.3333 5.09732L1.8356 5.68027Z" stroke="#6A7980" stroke-width="2" stroke-linejoin="round"/>
</svg>
